Coordinates
version=1
nRows=19
nColumns=34
inDegrees=yes

Units are S.I. units (second, meters, Newtons, ...)
If the header above contains a line with 'inDegrees', this indicates whether rotational values are in degrees (yes) or radians (no).

endheader
time	pelvis_tilt	pelvis_list	pelvis_rotation	pelvis_tx	pelvis_ty	pelvis_tz	hip_flexion_r	hip_adduction_r	hip_rotation_r	knee_angle_r	ankle_angle_r	subtalar_angle_r	mtp_angle_r	hip_flexion_l	hip_adduction_l	hip_rotation_l	knee_angle_l	ankle_angle_l	subtalar_angle_l	mtp_angle_l	lumbar_extension	lumbar_bending	lumbar_rotation	arm_flex_r	arm_add_r	arm_rot_r	elbow_flex_r	pro_sup_r	arm_flex_l	arm_add_l	arm_rot_l	elbow_flex_l	pro_sup_l
      9.56666670	     -0.27691931	     -8.30154907	     10.35076690	     -7.96761173	      0.98374102	      0.21910287	     54.01565925	      2.91510061	     -7.75507108	     77.32551082	     -1.14121066	    -25.29464904	      0.00000000	     -9.53578416	     -2.81532808	     -2.08795782	     36.87443952	     -1.76545921	     -8.10417310	      0.00000000	     -3.70077093	     12.47634915	    -55.42715855	   -277.40604706	     31.07008813	    139.65302622	      0.00000000	      0.00000000	      1.98019244	    -30.56600801	    335.40526106	     63.07632258	     66.00807858
      9.58333330	     -0.40261083	     -9.75843352	      9.90285245	     -7.90543942	      0.99038506	      0.20707451	     54.34838824	      3.24932403	     -9.72314677	     68.93372946	     -6.24717736	    -28.12234903	      0.00000000	    -13.49918163	     -4.46555969	     -2.05318167	     34.46021427	    -10.18004398	     -5.00193051	      0.00000000	     -2.15915875	     15.78127660	    -57.34581112	   -276.97913268	     31.76527502	    140.12314878	      0.00000000	      0.00000000	      3.97869811	    -30.45594396	    338.24392362	     64.85655132	     67.01481018
      9.60000000	     -0.65548302	    -10.42186022	      9.35556203	     -7.84652836	      0.99655857	      0.19654504	     53.72029323	      3.52412975	    -11.14067602	     59.48696023	     -9.43720930	    -30.49510635	      0.00000000	    -17.18012621	     -5.00857465	     -1.32585620	     32.81403647	    -17.91080321	     -2.88266355	      0.00000000	     -0.74878699	     17.78009291	    -59.33617072	   -276.86956743	     32.34476511	    140.58917830	      0.00000000	      0.00000000	      5.95643704	    -31.20761697	    341.51694453	     65.05392412	     68.02790470
      9.61666670	     -0.76227505	    -10.43592612	      8.98961243	     -7.78568848	      1.00020328	      0.18674593	     51.85103803	      3.80522973	    -12.42164027	     49.55425561	    -10.05459627	    -29.51212484	      0.00000000	    -20.73825743	     -4.85351556	     -0.06731327	     30.90502850	    -22.65209648	     -2.01118150	      0.00000000	      0.59624931	     18.61570664	    -61.23676961	   -277.45482364	     32.63877334	    140.76950198	      0.00000000	      0.00000000	      8.67624015	    -32.61799893	    346.58356890	     62.95443833	     69.41797583
      9.63333330	     -0.43249522	    -10.04536658	      8.60900657	     -7.72037671	      1.00118304	      0.17767238	     48.85532580	      4.44495485	    -13.67950520	     41.39552525	     -9.45719549	    -25.81235938	      0.00000000	    -23.60201016	     -4.20921474	      1.02350889	     30.73486497	    -24.24228990	     -3.25490467	      0.00000000	      1.59923009	     18.64769954	    -63.25380381	   -278.56729889	     32.80846271	    140.04639266	      0.00000000	      0.00000000	     10.84055507	    -33.84258313	    351.11613360	     59.25284991	     70.85580719
      9.65000000	      0.64650482	     -9.25904615	      7.76542446	     -7.65412287	      1.00237545	      0.16955385	     44.71691975	      5.87625848	    -14.02718198	     36.30500189	     -8.77102590	    -21.91258904	      0.00000000	    -25.26869504	     -3.02414447	      0.77081865	     33.70477975	    -25.58868469	     -6.48225073	      0.00000000	      1.69395356	     18.23314857	    -64.51102075	   -279.66811189	     32.79086576	    138.60707107	      0.00000000	      0.00000000	     12.21718810	    -34.48571248	    353.81429741	     55.08905695	     72.28237719
      9.66666670	      2.05488657	     -8.44461016	      6.37874266	     -7.59096145	      1.00404000	      0.16241322	     39.83464230	      7.93879469	    -13.65655049	     34.44100932	     -8.24230013	    -19.42688627	      0.00000000	    -25.09438716	     -1.86940923	     -1.34058731	     39.69607161	    -28.04486123	    -10.40126414	      0.00000000	      1.27249354	     17.90791514	    -64.98778770	   -280.65392078	     32.56822285	    136.82240372	      0.00000000	      0.00000000	     12.64773984	    -34.61262094	    354.48293982	     50.60727836	     73.53631994
      9.68333330	      3.39253467	     -7.81161418	      4.78632902	     -7.53376556	      1.00415109	      0.15730536	     34.79186489	     10.13672883	    -12.99520590	     34.85448231	     -6.58273883	    -19.35481137	      0.00000000	    -22.77871995	     -1.32867614	     -4.04913491	     48.18991361	    -29.95164611	    -14.25647237	      0.00000000	      0.57519331	     17.92509147	    -65.04640387	   -281.26311523	     32.36535492	    135.25512973	      0.00000000	      0.00000000	     12.14499647	    -34.58279402	    353.91921969	     46.24885649	     74.32721444
      9.70000000	      4.17186251	     -7.12206833	      3.22182368	     -7.48120370	      1.00029080	      0.15524105	     30.58891127	     11.75765662	    -12.29625733	     36.92719533	     -4.59880315	    -22.04344273	      0.00000000	    -19.05902825	     -1.22576846	     -6.22750204	     56.54072619	    -29.88382578	    -17.22010857	      0.00000000	     -0.05464441	     17.33861861	    -64.81599740	   -282.01428813	     31.65352246	    133.39444698	      0.00000000	      0.00000000	     11.37044173	    -34.84892038	    352.55274002	     41.35473148	     74.89430795
      9.71666670	      4.39334871	     -6.43199912	      1.55850187	     -7.43061096	      0.98966086	      0.15559011	     27.61648785	     12.81502003	    -11.57614822	     39.98727595	     -1.56335005	    -27.04725847	      0.00000000	    -14.55045350	     -1.39593242	     -7.61742276	     64.23241260	    -28.09984037	    -19.65819581	      0.00000000	     -0.67641865	     16.17812264	    -64.42038714	   -282.77048502	     30.57122318	    131.34703175	      0.00000000	      0.00000000	      9.98720499	    -36.09421676	    350.22706317	     36.67315768	     75.07696569
      9.73333330	      3.74777008	     -6.13891694	     -0.27308675	     -7.38020629	      0.97750524	      0.15647298	     26.18397669	     13.69727370	    -11.00349573	     43.65392025	      2.31393477	    -32.90902650	      0.00000000	     -8.80695002	     -2.29814697	     -8.31098845	     71.04165583	    -26.39531045	    -22.38644682	      0.00000000	     -0.67454034	     15.05732731	    -64.15936390	   -283.52640471	     28.91269507	    129.35555676	      0.00000000	      0.00000000	      7.30981040	    -37.72013930	    346.79229355	     32.79564138	     74.76423658
      9.75000000	      2.43546446	     -5.88239224	     -2.73091719	     -7.32777786	      0.96878611	      0.15828100	     25.46413038	     14.11042591	    -10.35337702	     47.19223362	      8.07515112	    -35.00000000	      0.00000000	     -1.06795208	     -3.51716942	     -8.27150353	     77.43147935	    -23.72324972	    -25.26300345	      0.00000000	     -0.54494761	     13.86980484	    -64.26734316	   -284.54493671	     27.15739531	    123.55369038	      0.00000000	      0.00000000	      1.06976417	    -37.43536138	    331.43911361	     32.73744049	     72.32701574
      9.76666670	      0.41643756	     -5.27922186	     -5.55474455	     -7.27089376	      0.96384412	      0.16096277	     24.99449752	     13.87990124	     -9.27764408	     50.19426963	     13.75694332	    -35.00000000	      0.00000000	      8.89742255	     -4.79907615	     -7.32577398	     83.51884735	    -20.51478670	    -29.21460282	      0.00000000	      0.22706088	     12.53954260	    -64.98359616	   -285.82007505	     25.62121010	    121.95999670	      0.00000000	      0.00000000	     -8.39918982	    -36.50876509	    318.44620586	     34.56730749	     70.27991618
      9.78333330	     -1.38466333	     -4.39222413	     -8.63722803	     -7.21352155	      0.96145014	      0.16393377	     23.92486310	     13.24354798	     -7.34933606	     52.62187566	     16.81308124	    -35.00000000	      0.00000000	     19.10185369	     -5.90415222	     -5.56289072	     88.03934250	    -16.83030413	    -32.27470137	      0.00000000	      0.90155376	     11.01048295	    -64.84458152	   -287.33182696	     23.68147268	    120.35175939	      0.00000000	      0.00000000	    -16.20707872	    -34.39386488	    305.13312298	     34.52033734	     67.69216364
      9.80000000	     -2.19929666	     -3.22615650	    -11.45616104	     -7.15946760	      0.96177819	      0.16679658	     21.45125287	     11.94528914	     -4.99170363	     54.04834001	     17.47645623	    -35.00000000	      0.00000000	     27.48212276	     -6.51103511	     -3.45794045	     89.63736319	    -13.86138069	    -34.23196668	      0.00000000	      0.96592289	      9.04195445	    -64.09945534	   -288.97063255	     21.77971994	    118.09289653	      0.00000000	      0.00000000	    -21.79491515	    -32.37943247	    291.50767424	     33.10022259	     64.69260038
      9.81666670	     -2.17999398	     -2.02782251	    -13.77767521	     -7.10817518	      0.96606993	      0.16838591	     17.82083191	      9.86462163	     -3.13504987	     54.44046539	     16.76758931	    -35.00000000	      0.00000000	     34.00033771	     -6.82037091	     -1.42941174	     88.59712848	    -10.47142146	    -35.00000000	      0.00000000	      0.33081961	      7.06725028	    -63.54133114	   -290.58154866	     20.29092827	    115.68801534	      0.00000000	      0.00000000	    -26.72892357	    -30.95177557	    279.34965217	     31.16421899	     62.09946394
      9.83333330	     -1.57945317	     -0.56894714	    -16.07765188	     -7.05828696	      0.97274582	      0.16955718	     13.72522201	      6.87210800	     -1.65257016	     53.80606557	     14.96441177	    -35.00000000	      0.00000000	     38.81757197	     -7.06159693	     -0.28363024	     85.08240812	     -7.88862280	    -35.00000000	      0.00000000	     -0.97882511	      4.14794019	    -62.49015102	   -292.70316264	     18.17563867	    111.69118008	      0.00000000	      0.11381614	    -31.27589490	    -29.23082113	    267.41531537	     32.23709409	     59.67346085
      9.85000000	     -1.06421577	      0.71641070	    -17.85180975	     -7.00951506	      0.98085806	      0.16854896	     10.15877463	      3.24055398	     -1.78437830	     52.45133425	     11.26589393	    -35.00000000	      0.00000000	     43.06379261	     -7.35601996	      0.68066087	     80.24481764	     -6.97696997	    -35.00000000	      0.00000000	     -3.27877769	      1.46379646	    -63.32074479	   -294.74216203	     16.76996830	     99.79128057	      0.00000000	      3.37723335	    -39.49919880	    -25.66870014	    263.26198171	     35.73354878	     54.87451693
      9.86666670	     -0.14593444	      1.65338013	    -19.17864875	     -6.95947434	      0.99136411	      0.16601060	      6.41322768	     -0.63335241	     -3.07881282	     50.33668970	      3.92241457	    -35.00000000	      0.00000000	     45.72822831	     -7.54361604	      1.44942946	     74.30580144	     -8.20056760	    -35.00000000	      0.00000000	     -6.70432487	     -1.13378118	    -64.73177197	   -296.76609394	     15.06278391	     99.92668508	      0.00000000	      5.29396606	    -47.90970700	    -20.22197597	    261.37231953	     43.26952484	     52.87157145
